<svg width="1530" height="953" viewBox="0 0 1530 953" fill="none" xmlns="http://www.w3.org/2000/svg">
<g filter="url(#filter0_d_2_179)">
<path d="M1525.8 92.3671C1497.92 27.7207 1424.72 -13.0666 1355.26 3.82297C1321.47 12.0726 1291.6 31.8334 1270.79 59.7139C1250.37 87.831 1241.61 122.757 1246.34 157.188C1250.71 190.365 1266.61 222.475 1292.4 244.16C1316.13 264.136 1349.87 274.367 1380.48 267.456C1412.22 260.214 1432.77 233.075 1434.2 201.004C1435.78 165.827 1418.3 131.718 1394.06 107.296C1368.51 81.6897 1333.2 65.402 1296.71 72.0996C1260.21 78.7972 1236.41 107.315 1230.96 143.288C1224.51 185.726 1241.24 226.086 1248.84 267.126C1255.43 303.096 1252.17 340.179 1239.39 374.442C1215.05 440.7 1158.34 496.319 1088.99 512.995C1051.05 522.119 1006.77 520.178 974.352 496.358C944.842 474.673 932.367 435.691 939.545 400.301C946.801 364.561 974.177 338.275 1009.66 330.84C1044.84 323.482 1083.02 335.266 1104.44 364.91C1124.98 393.312 1128.65 432.119 1117.4 464.889C1104.98 500.804 1073.94 527.089 1038.82 539.63C959.277 567.799 877.674 524.934 826.804 464.074C773.527 400.34 747.82 319.483 700.694 251.789C660.048 193.374 593.986 136.726 518.32 141.444C443.392 146.045 391.008 210.652 367.94 277.026C338.547 361.571 343.261 453.687 317.923 539.281C295.184 616.119 243.829 692.956 160.771 711.147C123.014 719.78 83.3802 710.891 52.9186 686.958C24.6701 664.749 4.68657 630.019 8.46985 593.25C12.3501 555.2 40.5017 522.702 74.7064 507.462C115.449 489.33 164.225 495.271 203.163 515.228C265.849 547.396 305.642 617.283 305.642 687.307C305.487 769.969 246.273 836.479 180.813 879.596C144.474 903.513 105.147 922.305 65.8981 940.923C63.3565 942.126 65.5683 945.892 68.1099 944.805C144.784 908.289 225.591 869.093 274.58 796.429C295.184 765.912 308.552 730.618 309.891 693.539C310.818 659.647 303.17 626.071 287.657 595.929C254.558 530.797 184.247 484.031 109.493 493.562C73.6394 498.125 40.5017 517.383 20.557 547.92C1.72969 576.247 -1.24481 612.262 12.6799 643.297C26.7072 674.553 54.7617 698.878 86.5607 710.875C120.319 723.63 157.725 720.057 190.572 706.177C266.238 674.184 307.757 598.763 327.042 522.508C337.945 479.468 342.834 435.342 348.558 391.39C354.572 345.089 361.925 297.779 381.385 254.915C397.236 219.971 421.604 187.648 454.276 166.972C487.778 145.774 528.788 140.057 566.805 151.286C647.34 174.582 697.784 248.159 734.996 318.241C773.081 389.954 807.635 468.034 876.626 515.83C908.503 537.922 946.472 552.715 985.624 552.948C1021.09 553.181 1057.04 541.61 1084.57 518.955C1111.09 497.347 1126.98 465.314 1128.13 431.11C1129.18 399.466 1117.59 366.58 1092.89 345.944C1068.2 325.307 1033.2 319.736 1002.6 328.025C971.189 336.548 946.336 359.824 937.256 391.254C928.448 421.714 934.055 456.658 953.456 481.953C976.175 511.597 1014.84 522.935 1050.89 522.275C1120.46 520.974 1183.73 478.731 1220.77 421.326C1239.45 392.651 1251.31 360.067 1255.42 326.084C1257.38 308.879 1257.07 291.49 1254.49 274.367C1250.94 250.78 1243.7 227.969 1238.75 204.673C1230.35 165.05 1229.69 114.091 1267.26 88.5426C1303.54 63.8489 1350.68 75.361 1382.11 102.132C1411.21 127.02 1433.31 165.711 1429.55 205.12C1427.76 223.717 1418.94 241.403 1403.57 252.43C1389.31 262.661 1371.38 266.019 1354.1 264.835C1274.45 259.011 1232.33 166.176 1256.41 96.0556C1269.14 59.0927 1299.58 29.5456 1335.47 14.7527C1371.52 -0.0688028 1412.14 1.01679 1447.34 17.7423C1480.72 33.4401 1507.26 60.7407 1522.02 94.5608C1523.14 97.1427 1526.9 94.9102 1525.8 92.3671Z" fill="#FF4C0D"/>
</g>
<defs>
<filter id="filter0_d_2_179" x="0" y="0" width="1530" height="953" filterUnits="userSpaceOnUse" color-interpolation-filters="sRGB">
<feFlood flood-opacity="0" result="BackgroundImageFix"/>
<feColorMatrix in="SourceAlpha" type="matrix" values="0 0 0 0 0 0 0 0 0 0 0 0 0 0 0 0 0 0 127 0" result="hardAlpha"/>
<feOffset dy="4"/>
<feGaussianBlur stdDeviation="2"/>
<feComposite in2="hardAlpha" operator="out"/>
<feColorMatrix type="matrix" values="0 0 0 0 0 0 0 0 0 0 0 0 0 0 0 0 0 0 0.25 0"/>
<feBlend mode="normal" in2="BackgroundImageFix" result="effect1_dropShadow_2_179"/>
<feBlend mode="normal" in="SourceGraphic" in2="effect1_dropShadow_2_179" result="shape"/>
</filter>
</defs>
</svg>
