<svg width="9.722vw" height="2.778vw" viewBox="0 0 136 40" fill="none" xmlns="http://www.w3.org/2000/svg">
<path fill-rule="evenodd" clip-rule="evenodd" d="M130.662 40H5.6659C2.90918 40 0.664062 37.7456 0.664062 35V5C0.664062 2.24439 2.90918 0 5.6659 0H130.662C133.416 0 135.664 2.24439 135.664 5V35C135.664 37.7456 133.416 40 130.662 40Z" fill="#F1F1F1"/>
<path fill-rule="evenodd" clip-rule="evenodd" d="M130.662 0.800499C132.974 0.800499 134.867 2.68828 134.867 5V35C134.867 37.3117 132.987 39.1995 130.662 39.1995H5.6659C3.35373 39.1995 1.46128 37.3117 1.46128 35V5C1.46128 2.68828 3.34131 0.800499 5.6659 0.800499H130.662ZM130.662 0H5.6659C2.90918 0 0.664062 2.25436 0.664062 5V35C0.664062 37.7556 2.90918 40 5.6659 40H130.662C133.416 40 135.664 37.7556 135.664 35V5C135.664 2.25436 133.416 0 130.662 0Z" fill="#F1F1F1"/>
<path d="M71.7825 13.2319C70.881 13.2319 70.121 12.9152 69.52 12.2917C68.9239 11.6857 68.5911 10.8503 68.606 9.99745C68.606 9.08722 68.914 8.31665 69.52 7.70568C70.1185 7.08223 70.8785 6.76553 71.78 6.76553C72.6716 6.76553 73.4315 7.08223 74.0425 7.70568C74.6485 8.3366 74.9564 9.10717 74.9564 9.99745C74.9465 10.9102 74.6385 11.6807 74.0425 12.2892C73.444 12.9176 72.684 13.2319 71.7825 13.2319ZM44.958 13.2319C44.0763 13.2319 43.3114 12.9201 42.6856 12.3042C42.0647 11.6907 41.7493 10.9152 41.7493 9.99994C41.7493 9.08473 42.0647 8.30917 42.6856 7.6957C43.299 7.07974 44.0639 6.76802 44.958 6.76802C45.3951 6.76802 45.8198 6.8553 46.2271 7.03236C46.6269 7.20443 46.9522 7.43884 47.1931 7.72563L47.2527 7.79795L46.5797 8.46129L46.5102 8.37899C46.1302 7.92513 45.6211 7.70318 44.948 7.70318C44.347 7.70318 43.823 7.91765 43.3909 8.34159C42.9563 8.76802 42.7352 9.32662 42.7352 10.0024C42.7352 10.6782 42.9563 11.2368 43.3909 11.6633C43.823 12.0872 44.347 12.3017 44.948 12.3017C45.5888 12.3017 46.1277 12.0872 46.5474 11.6633C46.7958 11.4139 46.9498 11.0648 47.0044 10.6234H44.8462V9.69071H47.9307L47.9432 9.7755C47.9655 9.93261 47.9879 10.0947 47.9879 10.2443C47.9879 11.1047 47.7296 11.8004 47.218 12.3142C46.6368 12.9226 45.8769 13.2319 44.958 13.2319ZM80.6238 13.0997H79.6726L76.7594 8.41889L76.7843 9.26179V13.0972H75.8331V6.90019H76.9184L76.9482 6.94757L79.6875 11.3565L79.6627 10.5161V6.90019H80.6238V13.0997ZM64.6349 13.0997H63.6713V7.83286H61.9999V6.90019H66.3038V7.83286H64.6324V13.0997H64.6349ZM61.2151 13.0997H60.254V6.90019H61.2151V13.0997ZM55.8134 13.0997H54.8523V7.83286H53.1809V6.90019H57.4848V7.83286H55.8134V13.0997ZM52.5724 13.0897H48.8869V6.90019H52.5724V7.83286H49.8505V9.53361H52.3067V10.4563H49.8505V12.157H52.5724V13.0897ZM70.2253 11.6508C70.655 12.0822 71.1765 12.2992 71.7825 12.2992C72.4058 12.2992 72.915 12.0872 73.3396 11.6508C73.7618 11.2269 73.9754 10.6708 73.9754 9.99994C73.9754 9.32912 73.7618 8.77051 73.3421 8.34907C72.9125 7.91765 72.3885 7.70069 71.785 7.70069C71.1616 7.70069 70.6525 7.91266 70.2303 8.34907C69.8081 8.77301 69.5945 9.32912 69.5945 9.99994C69.5945 10.6708 69.8056 11.2294 70.2253 11.6508Z" fill="black"/>
<path fill-rule="evenodd" clip-rule="evenodd" d="M68.5166 21.7556C66.1697 21.7556 64.2673 23.5436 64.2673 26.01C64.2673 28.4539 66.1821 30.2643 68.5166 30.2643C70.8636 30.2643 72.766 28.4638 72.766 26.01C72.766 23.5436 70.8636 21.7556 68.5166 21.7556ZM68.5166 28.5786C67.2326 28.5786 66.1275 27.5112 66.1275 26C66.1275 24.4663 67.2351 23.4214 68.5166 23.4214C69.8006 23.4214 70.9058 24.4663 70.9058 26C70.9083 27.5212 69.8006 28.5786 68.5166 28.5786ZM59.2456 21.7556C56.8986 21.7556 54.9962 23.5436 54.9962 26.01C54.9962 28.4539 56.9111 30.2643 59.2456 30.2643C61.5925 30.2643 63.4949 28.4638 63.4949 26.01C63.4949 23.5436 61.59 21.7556 59.2456 21.7556ZM59.2456 28.5786C57.9616 28.5786 56.8564 27.5112 56.8564 26C56.8564 24.4663 57.9641 23.4214 59.2456 23.4214C60.5296 23.4214 61.6347 24.4663 61.6347 26C61.6347 27.5212 60.5296 28.5786 59.2456 28.5786ZM48.2137 23.0549V24.8554H52.5177C52.386 25.8653 52.0533 26.611 51.5441 27.1222C50.9133 27.7556 49.9398 28.4439 48.2236 28.4439C45.5787 28.4439 43.5099 26.2992 43.5099 23.6434C43.5099 20.9875 45.5787 18.8429 48.2236 18.8429C49.6517 18.8429 50.6923 19.409 51.4647 20.1322L52.7362 18.8554C51.6633 17.8229 50.2353 17.0324 48.2336 17.0324C44.6051 17.0324 41.5603 20 41.5603 23.6334C41.5603 27.2768 44.6026 30.2344 48.2336 30.2344C50.1931 30.2344 51.6633 29.591 52.8256 28.3791C54.0103 27.1895 54.3853 25.5112 54.3853 24.1571C54.3853 23.7357 54.353 23.3566 54.286 23.0349H48.2112C48.2137 23.0324 48.2137 23.0549 48.2137 23.0549ZM93.3371 24.4564C92.982 23.5012 91.9091 21.7456 89.7087 21.7456C87.5281 21.7456 85.7151 23.4688 85.7151 26C85.7151 28.389 87.5082 30.2544 89.9198 30.2544C91.8569 30.2544 92.9844 29.0648 93.4489 28.3666L92.0109 27.399C91.5341 28.1097 90.871 28.5761 89.9297 28.5761C88.9785 28.5761 88.3129 28.1421 87.8708 27.2868L93.5358 24.9302C93.5358 24.9327 93.3371 24.4564 93.3371 24.4564ZM87.5604 25.8778C87.5157 24.2344 88.832 23.399 89.7732 23.399C90.5158 23.399 91.1342 23.7656 91.3453 24.2993L87.5604 25.8778ZM82.9584 30H84.8186V17.5012H82.9584V30ZM79.9037 22.7007H79.8366C79.4169 22.1995 78.6197 21.7456 77.6014 21.7456C75.4879 21.7456 73.5408 23.6135 73.5408 26.0125C73.5408 28.4015 75.478 30.2469 77.6014 30.2469C78.6072 30.2469 79.4169 29.7905 79.8366 29.2793H79.9037V29.8903C79.9037 31.5137 79.0394 32.389 77.6461 32.389C76.5062 32.389 75.7984 31.5661 75.5103 30.8778L73.8935 31.5561C74.3579 32.6783 75.5972 34.0673 77.6436 34.0673C79.8242 34.0673 81.6719 32.7781 81.6719 29.6334V22H79.9136V22.7007C79.9161 22.7007 79.9037 22.7007 79.9037 22.7007ZM77.7678 28.5786C76.4838 28.5786 75.4109 27.5012 75.4109 26.0125C75.4109 24.5112 76.4838 23.4239 77.7678 23.4239C79.0394 23.4239 80.0253 24.5237 80.0253 26.0125C80.0378 27.5012 79.0419 28.5786 77.7678 28.5786ZM102.047 17.5012H97.5989V30H99.459V25.2668H102.049C104.108 25.2668 106.132 23.7681 106.132 21.389C106.132 19.01 104.116 17.5012 102.047 17.5012ZM102.102 23.5212H99.4565V19.2319H102.102C103.495 19.2319 104.282 20.3865 104.282 21.3766C104.282 22.3566 103.485 23.5212 102.102 23.5212ZM113.588 21.7332C112.237 21.7332 110.844 22.3342 110.267 23.6434L111.916 24.3317C112.272 23.6434 112.922 23.409 113.61 23.409C114.574 23.409 115.547 23.9875 115.57 25.0199V25.1521C115.237 24.9626 114.507 24.6733 113.633 24.6733C111.852 24.6733 110.046 25.6509 110.046 27.4838C110.046 29.1621 111.507 30.2394 113.133 30.2394C114.383 30.2394 115.071 29.6733 115.5 29.0175H115.567V29.985H117.36V25.197C117.36 22.9676 115.711 21.7332 113.588 21.7332ZM113.354 28.5786C112.746 28.5786 111.894 28.2793 111.894 27.5112C111.894 26.5436 112.957 26.1771 113.864 26.1771C114.683 26.1771 115.071 26.3541 115.557 26.5985C115.423 27.7207 114.479 28.5686 113.354 28.5786ZM123.902 22L121.766 27.4214H121.699L119.486 22H117.485L120.805 29.5786L118.913 33.7905H120.85L125.958 22H123.902ZM107.158 30H109.018V17.5012H107.158V30Z" fill="black"/>
<path fill-rule="evenodd" clip-rule="evenodd" d="M11.0553 7.53364C10.7672 7.84536 10.6008 8.32167 10.6008 8.94511V31.0573C10.6008 31.6808 10.7672 32.1571 11.0653 32.4563L11.1422 32.5237L23.4804 20.1346V19.8578L11.1323 7.4663L11.0553 7.53364Z" fill="url(#paint0_linear_2_242)"/>
<path fill-rule="evenodd" clip-rule="evenodd" d="M27.5855 24.2768L23.4702 20.1446V19.8554L27.5855 15.7232L27.6749 15.7781L32.5426 18.5561C33.9359 19.3441 33.9359 20.6459 32.5426 21.4439L27.6749 24.2219L27.5855 24.2768Z" fill="url(#paint1_linear_2_242)"/>
<path fill-rule="evenodd" clip-rule="evenodd" d="M27.675 24.2219L23.4704 20L11.0552 32.4663C11.5097 32.9551 12.2721 33.01 13.124 32.5337L27.675 24.2219Z" fill="url(#paint2_linear_2_242)"/>
<path fill-rule="evenodd" clip-rule="evenodd" d="M27.675 15.7781L13.124 7.4788C12.2721 6.99002 11.5072 7.05736 11.0552 7.54613L23.4704 20L27.675 15.7781Z" fill="url(#paint3_linear_2_242)"/>
<path opacity="0.2" fill-rule="evenodd" clip-rule="evenodd" d="M27.5855 24.1322L13.1337 32.3766C12.3266 32.8429 11.6064 32.8105 11.1419 32.3866L11.0649 32.4639L11.1419 32.5312C11.6064 32.9526 12.3266 32.9876 13.1337 32.5212L27.6848 24.222L27.5855 24.1322Z" fill="black"/>
<path opacity="0.12" fill-rule="evenodd" clip-rule="evenodd" d="M32.5428 21.2993L27.5732 24.1322L27.6626 24.2219L32.5304 21.4439C33.2282 21.0449 33.571 20.5212 33.571 20C33.5288 20.4788 33.1736 20.9327 32.5428 21.2993Z" fill="black"/>
<path opacity="0.25" fill-rule="evenodd" clip-rule="evenodd" d="M13.1241 7.62347L32.5429 18.7008C33.1737 19.0574 33.5288 19.5237 33.5835 20C33.5835 19.4788 33.2407 18.9551 32.5429 18.5561L13.1241 7.47883C11.7308 6.67833 10.6008 7.34666 10.6008 8.94517V9.08981C10.6008 7.48881 11.7308 6.83295 13.1241 7.62347Z" fill="#F1F1F1"/>
<defs>
<linearGradient id="paint0_linear_2_242" x1="22.3737" y1="8.70654" x2="2.59932" y2="13.9538" gradientUnits="userSpaceOnUse">
<stop stop-color="#00A0FF"/>
<stop offset="0.00657" stop-color="#00A1FF"/>
<stop offset="0.2601" stop-color="#00BEFF"/>
<stop offset="0.5122" stop-color="#00D2FF"/>
<stop offset="0.7604" stop-color="#00DFFF"/>
<stop offset="1" stop-color="#00E3FF"/>
</linearGradient>
<linearGradient id="paint1_linear_2_242" x1="34.3596" y1="20" x2="10.2618" y2="20" gradientUnits="userSpaceOnUse">
<stop stop-color="#FFE000"/>
<stop offset="0.4087" stop-color="#FFBD00"/>
<stop offset="0.7754" stop-color="#FFA500"/>
<stop offset="1" stop-color="#FF9C00"/>
</linearGradient>
<linearGradient id="paint2_linear_2_242" x1="25.3887" y1="22.2973" x2="9.42591" y2="49.0538" gradientUnits="userSpaceOnUse">
<stop stop-color="#FF3A44"/>
<stop offset="1" stop-color="#C31162"/>
</linearGradient>
<linearGradient id="paint3_linear_2_242" x1="7.92889" y1="0.178792" x2="15.0506" y2="12.1287" gradientUnits="userSpaceOnUse">
<stop stop-color="#32A071"/>
<stop offset="0.0685" stop-color="#2DA771"/>
<stop offset="0.4762" stop-color="#15CF74"/>
<stop offset="0.8009" stop-color="#06E775"/>
<stop offset="1" stop-color="#00F076"/>
</linearGradient>
</defs>
</svg>
