<svg width="343" height="592" viewBox="0 0 343 592" fill="none" xmlns="http://www.w3.org/2000/svg">
<path fill-rule="evenodd" clip-rule="evenodd" d="M308.84 -8.75722C309.526 -9.22084 309.707 -10.1532 309.243 -10.8398C308.78 -11.5263 307.847 -11.7071 307.161 -11.2435C278.25 8.27956 214.544 56.5791 164.122 102.65C138.927 125.671 116.959 148.215 104.327 166.376C98.031 175.426 93.9218 183.57 93.0223 190.245C92.5682 193.615 92.9196 196.704 94.3142 199.349C95.7151 202.005 98.0838 204.051 101.365 205.475C107.276 208.042 115.534 209.276 125.144 209.617C127.135 209.687 129.189 209.72 131.3 209.717L132.084 206.715C129.73 206.727 127.449 206.697 125.251 206.619C115.752 206.281 107.948 205.063 102.559 202.723C99.7712 201.513 97.9886 199.884 96.9677 197.949C95.9406 196.001 95.5998 193.581 95.9954 190.646C96.7954 184.709 100.553 177.054 106.789 168.089C119.22 150.219 140.977 127.862 166.146 104.864C216.454 58.8977 280.043 10.6882 308.84 -8.75722ZM158.959 205.177L158.129 208.269C181.583 206.061 207.627 201.704 229.488 197.884C232.374 197.38 235.187 196.885 237.911 196.406L237.917 196.405L237.965 196.396L237.977 196.394L237.986 196.393L238.001 196.39C245.629 195.048 252.559 193.829 258.466 192.866C266.545 191.547 272.573 190.731 275.827 190.707C275.875 190.706 275.923 190.706 275.97 190.706C273.091 192.564 266.652 195.596 255.663 200.158C211.894 218.33 129.34 272.104 70.0688 326.558C40.4537 353.766 16.4714 381.304 6.12226 404.786C0.943702 416.536 -0.91048 427.471 1.8761 436.907C3.76495 443.302 7.74032 448.861 13.988 453.444L16.099 451.271C10.095 446.962 6.45607 441.823 4.75326 436.057C2.25043 427.582 3.82962 417.427 8.86748 405.996C18.9512 383.116 42.5339 355.929 72.0984 328.767C131.186 274.481 213.45 220.932 256.814 202.929C267.845 198.349 274.571 195.201 277.686 193.169C278.463 192.661 279.117 192.16 279.56 191.659C279.911 191.261 280.621 190.29 280.08 189.169C279.84 188.67 279.439 188.378 279.121 188.211C278.801 188.043 278.453 187.942 278.131 187.876C277.488 187.744 276.69 187.7 275.804 187.707C272.274 187.733 266.003 188.596 257.983 189.905C252.049 190.873 245.083 192.098 237.439 193.443C234.698 193.925 231.87 194.423 228.971 194.929C207.455 198.688 181.992 202.95 158.959 205.177ZM54.44 502.678C67.9305 491.503 83.802 480.38 100.718 469.77L102.699 469.212L113.239 462.824L120.827 457.664C123.677 456.015 126.542 454.383 129.415 452.772C156.815 437.405 184.995 423.861 208.995 413.862C232.935 403.888 252.88 397.37 263.74 396.173C265.151 396.017 266.376 395.968 267.409 396.034C268.424 396.098 269.355 396.279 270.11 396.658C270.905 397.057 271.567 397.717 271.792 398.679C272.001 399.571 271.765 400.45 271.411 401.193C270.713 402.663 269.212 404.315 267.224 406.065C265.194 407.851 262.51 409.863 259.268 412.037C247.005 420.26 226.378 431.048 201.643 441.006L199.8 438.548L199.55 438.614C224.586 428.6 245.396 417.727 257.597 409.545C260.776 407.414 263.344 405.483 265.242 403.813C267.18 402.107 268.281 400.791 268.702 399.905C268.833 399.629 268.863 399.47 268.869 399.4C268.847 399.384 268.814 399.364 268.764 399.339C268.519 399.216 268.042 399.08 267.219 399.027C266.414 398.976 265.373 399.011 264.069 399.154C253.686 400.3 234.102 406.652 210.149 416.631C186.257 426.586 158.181 440.079 130.882 455.389C127.111 457.504 123.355 459.653 119.628 461.832L118.03 462.185L111.961 465.698L113.323 465.99C113.008 466.038 112.692 466.085 112.377 466.131C91.789 478.513 72.3588 491.73 56.3538 504.989C35.5489 522.223 20.785 539.326 16.5263 554.579C14.413 562.149 15.1493 568.162 18.3407 572.884C21.5681 577.661 27.4859 581.389 36.3022 583.953C53.9598 589.089 82.4072 589.316 120.956 584.906C191.028 576.891 293.786 553.648 423.983 517.763H435.234C300.047 555.3 193.475 579.631 121.297 587.887C82.7079 592.301 53.7409 592.149 35.4645 586.834C26.3138 584.172 19.6348 580.158 15.855 574.564C12.0393 568.917 11.3582 561.934 13.6368 553.772C18.162 537.564 33.5821 519.957 54.44 502.678ZM479.287 505.348C589.263 473.85 652.558 451.396 687.464 436.092C705.67 428.11 716.262 422.027 721.725 417.561C724.412 415.364 726.087 413.379 726.629 411.568C726.917 410.604 726.901 409.627 726.472 408.74C726.054 407.875 725.332 407.277 724.548 406.872C723.812 406.491 722.907 406.779 722.527 407.515C722.146 408.251 722.435 409.156 723.171 409.537C723.571 409.743 723.717 409.934 723.771 410.045C723.813 410.133 723.871 410.317 723.754 410.708C723.486 411.606 722.434 413.107 719.826 415.239C714.697 419.432 704.421 425.382 686.259 433.345C651.624 448.529 588.71 470.866 479.287 502.227V505.348ZM167.697 450.01L169.752 452.505C162.35 454.865 154.77 457.065 147.094 459.039L145.612 456.321C153.084 454.416 160.472 452.291 167.697 450.01ZM277.386 189.577C277.388 189.576 277.381 189.587 277.363 189.611C277.375 189.589 277.384 189.577 277.386 189.577Z" fill="#FF4C0D"/>
</svg>
