<svg width="296" height="973" viewBox="0 0 296 973" fill="none" xmlns="http://www.w3.org/2000/svg">
<path d="M65.1485 -160.444C16.6509 -124.165 -6.2564 -60.716 1.53303 -1.40066C9.60964 60.0443 52.2659 108.879 110.964 127.646C167.628 145.729 235.079 135.612 277.705 92.0088C317.575 51.2188 335.303 -21.1424 287.623 -63.52C247.355 -99.2998 176.854 -98.7043 140.119 -58.209C103.384 -17.7136 106.257 47.2131 136.271 90.6622C174.157 145.473 247.128 151.865 307.702 144.295C381.131 135.252 457.197 104.025 531.15 126.743C589.457 144.655 636.083 192.813 657.097 249.58C667.808 277.945 671.282 308.53 667.205 338.565C662.471 371.292 644.551 405.666 615.216 422.68C582.585 441.611 546.037 426.632 528.489 394.852C509.226 359.894 516.643 318.228 524.882 281.224C540.636 210.564 567.626 135.037 626.295 88.607C678.288 47.5613 756.052 31.4499 812.625 73.0048C876.759 120.12 886.289 207.043 874.557 279.91C868.185 319.439 856.775 358.068 845.721 396.489C834.489 435.553 822.978 474.572 813.583 514.173C795.861 589.223 786.104 667.15 801.494 743.528C815.924 815.178 852.324 882.665 914.435 923.535C972.218 961.671 1043.28 974.707 1111.57 972.651C1196.91 970.168 1280.06 946.465 1362.44 926.256L1626.69 861.455L1753.4 830.374C1756.13 829.707 1755.42 825.381 1752.7 826.023L1491.61 890.04C1406.68 910.879 1321.98 933.679 1236.39 951.692C1160.2 967.709 1080.53 976.704 1004.04 957.322C970.168 948.742 937.453 934.806 908.959 914.35C878.13 891.868 852.997 862.465 835.581 828.506C758.774 681.263 817.402 514.62 858.769 366.694C878.455 296.214 896.709 219.412 871.072 147.857C860.017 116.914 841.052 87.9577 814.139 68.6073C789.572 51.2756 759.925 42.6604 729.916 44.1328C664.872 46.6862 608.829 87.154 574.358 140.481C555.12 170.334 541.676 203.584 531.606 237.485C521.337 272.124 511.189 309.657 511.969 346.017C512.643 376.978 524.688 409.988 552.291 426.76C576.961 441.732 606.175 436.663 627.991 419.153C675.51 381.019 681.594 312.355 664.459 257.622C647.449 203.348 607.55 155.835 555.916 131.593C490.175 100.784 418.032 119.21 350.495 132.617C286.536 145.334 205.124 154.653 153.721 104.57C112.658 64.5673 103.312 -9.08818 142.016 -53.7375C181.096 -98.8819 264.437 -94.7418 298.168 -44.9627C338.613 14.6835 289.132 92.9116 231.844 118.358C174.555 143.804 102.008 132.609 54.694 91.3569C5.47646 48.3919 -6.73753 -23.5407 14.6464 -83.6002C24.7936 -112.794 43.3405 -138.328 67.9559 -156.992C70.2457 -158.709 67.3821 -162.049 65.1485 -160.444Z" fill="#FF4C0D"/>
</svg>
