<svg width="620" height="530" viewBox="0 0 620 530" fill="none" xmlns="http://www.w3.org/2000/svg">
<mask id="mask0_2_232" style="mask-type:alpha" maskUnits="userSpaceOnUse" x="0" y="0" width="620" height="530">
<path d="M0 0H620V530H114L57 338H0V0Z" fill="#C4C4C4"/>
</mask>
<g mask="url(#mask0_2_232)">
<path d="M933.826 92.3552C967.477 142.712 967.951 210.168 940.856 263.505C912.781 318.755 856.299 350.6 794.702 348.752C735.25 346.936 675.016 314.937 649.341 259.63C625.327 207.892 632.705 133.757 691.773 109.673C741.657 89.3427 807.938 113.378 829.093 163.795C850.249 214.211 825.921 274.476 783.152 305.452C729.178 344.52 658.243 326.251 603.646 298.945C537.418 265.969 476.089 211.196 398.792 207.995C337.848 205.471 277.847 235.355 239.131 281.887C219.587 305.067 206.127 332.75 199.971 362.428C193.538 394.865 198.99 433.244 220.987 459.054C245.452 487.771 284.903 485.815 312.031 461.691C341.834 435.141 348.714 393.384 353.266 355.748C361.938 283.875 361.636 203.67 321.774 140.355C286.414 84.3394 218.452 43.2551 151.27 63.6018C75.1086 86.6747 37.1804 165.465 23.9806 238.08C16.8277 277.475 14.7251 317.699 12.3547 357.609C9.9394 398.184 7.80173 438.809 3.47506 479.278C-4.80311 555.947 -21.5496 632.676 -61.493 699.572C-98.9558 762.329 -155.749 813.844 -227.925 831.702C-295.109 848.423 -366.461 837.052 -430.163 812.378C-509.807 781.622 -580.319 731.585 -651.273 685.099L-878.872 536.009L-988.001 464.513C-990.35 462.975 -988.239 459.134 -985.89 460.644L-761.018 607.939C-687.868 655.869 -615.591 705.571 -540.889 751.052C-474.376 791.525 -402.248 826.532 -323.669 833.726C-288.87 836.914 -253.382 834.666 -219.702 824.864C-183.147 813.931 -149.659 794.574 -121.929 768.351C-0.478022 655.084 -0.274808 478.428 9.97239 325.169C14.8765 252.156 23.2364 173.659 71.2355 114.722C91.9629 89.226 119.487 68.2366 151.307 58.9513C180.243 50.7884 211.067 52.5361 238.873 63.9163C299.356 87.9811 338.727 144.8 353.475 206.562C361.676 241.117 363.282 276.946 361.489 312.266C359.639 348.347 356.711 387.118 343.868 421.143C332.924 450.114 310.576 477.229 278.963 483.854C250.715 489.757 224.856 475.249 210.115 451.475C178.005 399.695 195.131 332.923 229.512 287.018C263.622 241.505 317.065 209.988 373.824 204.321C446.072 197.16 507.964 238.555 567.182 273.685C623.258 306.972 696.922 342.867 762.067 312.757C814.107 288.709 847.444 222.368 825.815 167.379C803.996 111.798 724.033 87.9531 675.652 123.661C617.654 166.437 638.265 256.676 683.812 299.746C729.359 342.815 801.493 356.414 859.844 333.269C920.559 309.144 956.026 245.382 955.86 181.63C956.013 150.723 947.026 120.47 930.029 94.6753C928.442 92.2942 932.254 90.0984 933.826 92.3552Z" fill="#FF4C0D"/>
</g>
</svg>
