<svg width="1440" height="719" viewBox="0 0 1440 719" fill="none" xmlns="http://www.w3.org/2000/svg">
<path d="M-79.9049 155.908C-81.2129 100.537 -48.5249 48.2192 -1.46839 20.3121C47.2819 -8.59147 106.499 -5.50363 153.154 26.1067C198.169 56.6403 228.999 110.863 221.722 166.149C214.912 217.864 172.889 271.492 115.479 261.144C66.9993 252.398 27.5997 201.362 35.969 152.067C44.3382 102.773 92.6531 68.1605 140.855 65.1993C201.674 61.4809 247.494 110.346 276.27 158.183C311.248 216.097 331.763 288.441 389.879 328.789C435.699 360.601 496.672 366.927 549.367 349.969C575.816 341.648 599.773 326.868 619.069 306.969C639.931 285.076 654.527 252.77 650.19 222.062C645.37 187.901 613.951 170.08 581.183 175.414C545.162 181.311 519.388 210.182 497.432 237.012C455.517 288.258 416.449 350.335 416.203 418.756C416.058 479.334 448.402 544.359 510.246 561.568C580.359 581.072 648.253 538.82 694.026 489.22C718.854 462.306 740.187 432.278 761.573 402.624C783.32 372.478 804.878 342.157 828.048 313.03C872.009 257.887 922.537 206.847 986.158 174.767C1045.84 144.667 1114.93 132.719 1179.41 154.298C1239.48 174.308 1289 218.05 1326.1 268.317C1372.52 331.091 1402.45 404.277 1434.46 474.939L1537.14 701.582L1586.37 810.261C1587.43 812.599 1583.92 814.531 1582.84 812.214L1481.39 588.292C1448.39 515.441 1416.94 441.647 1381.54 369.925C1350.02 306.083 1311.48 243.709 1254.33 199.651C1229.02 180.137 1200.52 164.484 1169.71 155.548C1136.13 146.078 1100.79 144.614 1066.53 151.275C917.247 179.22 830.527 315.523 747.517 428.839C707.953 482.812 663.034 539.326 597.093 561.313C568.595 570.843 537.058 573.563 507.939 565.141C481.596 557.265 458.652 540.811 442.759 518.399C407.85 470.181 405.291 407.016 424.168 352.101C434.768 321.401 451.085 292.95 469.776 266.557C488.884 239.603 510.143 211.102 536.732 191.122C559.378 174.116 589.921 164.13 617.576 174.506C642.28 183.789 655.138 207.662 654.871 233.242C654.291 288.958 608.349 332.123 559.309 350.721C510.669 369.149 453.96 367.297 407.358 343.86C348.063 313.987 320.558 251.697 292.047 195.555C265.06 142.375 225.77 78.5636 160.714 69.8911C108.749 62.9598 50.5007 97.8484 40.2566 150.906C29.8687 204.513 79.9271 262.107 134.781 258.243C200.523 253.634 228.827 173.857 214.763 118.283C200.699 62.7091 151.665 16.8624 95.2692 6.14124C36.5672 -4.98104 -22.0624 26.8719 -53.1733 76.1791C-68.4355 99.9688 -76.3203 127.731 -75.8366 155.977C-75.7775 158.594 -79.7971 158.421 -79.9049 155.908Z" fill="#FF4C0D"/>
</svg>
